<svg xmlns="http://www.w3.org/2000/svg" viewBox="0 0 150 150"><title>chat</title><g id="Livello_2" data-name="Livello 2"><g id="icone"><g id="chat"><path d="M85.23,93.37c4,5.49,9.89,11.69,15.84,11.68C98,102.43,96,97.19,94.84,92.73c14.48-2.62,25.26-12.58,25.26-24.47,0-13.89-14.72-25.15-32.88-25.15S54.35,54.37,54.35,68.26C54.35,81.64,68,92.58,85.23,93.37Z" style="fill:none;stroke:#fff;stroke-miterlimit:10;stroke-width:3px"/><path d="M78.6,84.38c0-10.25-10.86-18.55-24.25-18.55S30.1,74.13,30.1,84.38c0,8.77,7.95,16.11,18.64,18.05-.87,3.28-2.32,7.14-4.6,9.08,4.39,0,8.72-4.57,11.68-8.62C68.52,102.32,78.6,94.25,78.6,84.38Z" style="fill:#fff"/></g></g></g></svg>