<svg xmlns="http://www.w3.org/2000/svg" viewBox="0 0 150 150"><title>Risorsa 3</title><g id="Livello_2" data-name="Livello 2"><g id="icone_bottoni" data-name="icone bottoni"><g id="Livello_2-2" data-name="Livello 2"><g id="icone"><g id="stats"><path d="M105.47,107H41.7V43a2,2,0,1,0-4-.28v66.17a2.09,2.09,0,0,0,2,2.07h65.74a2,2,0,0,0,2-2h0A2,2,0,0,0,105.47,107Z" style="fill:#fff"/><path d="M52.52,98.11a3.07,3.07,0,0,0,4.16-1.21L71.93,69.2l13.92,7.66a2.87,2.87,0,0,0,2.71.48,3,3,0,0,0,1.86-1.46,2.83,2.83,0,0,0,.17-.4L99.11,60l3.06,1.67c1.59.87,2.82.1,2.76-1.71l-.45-12.45c-.07-1.81-1.39-2.54-3-1.64L90.6,52.19c-1.57.9-1.55,2.34,0,3.21l3.09,1.68-7.2,13.14L72.29,62.4A3.25,3.25,0,0,0,68,63.64L51.31,94A3.07,3.07,0,0,0,52.52,98.11Z" style="fill:#fff"/></g></g></g></g></g></svg>