<svg xmlns="http://www.w3.org/2000/svg" viewBox="0 0 29.35 42.41"><title>winner-bet</title><g id="Livello_2" data-name="Livello 2"><g id="panel_SHOW" data-name="panel SHOW"><g id="ON_SMALL" data-name="ON SMALL"><g id="win_bet_ico" data-name="win/bet ico"><path d="M21.82,24.17C21.15,25.84,6.57,26.08,7,23.41A77.52,77.52,0,0,1,2.5,35.25l7.78-2.78a55.46,55.46,0,0,1,3.63,9.94l5.19-7.33,7.61,1.74S22.81,21.69,21.82,24.17Z" style="fill:#fff"/><path d="M27.17,15.91l2.18-1.23-2.18-1.23,1.9-1.64L26.69,11l1.54-2-2.48-.3,1.13-2.24-2.5.19.67-2.41L22.64,5l.19-2.5L20.59,3.6l-.3-2.48-2,1.54L17.54.28l-1.63,1.9L14.68,0,13.45,2.18,11.81.28,11,2.66l-2-1.54L8.76,3.6,6.52,2.47,6.71,5,4.3,4.3,5,6.71l-2.5-.19L3.6,8.76l-2.48.3,1.54,2-2.38.78,1.9,1.64L0,14.68l2.18,1.23L.28,17.54l2.38.78-1.54,2,2.48.3L2.47,22.83,5,22.64,4.3,25.05l2.41-.67-.19,2.5,2.24-1.13.3,2.48,2-1.54.78,2.38,1.64-1.9,1.23,2.18,1.23-2.18,1.63,1.9.78-2.38,2,1.54.3-2.48,2.24,1.13-.19-2.5,2.41.67-.67-2.41,2.5.19-1.13-2.24,2.48-.3-1.54-2,2.38-.78ZM14.68,25.13A10.46,10.46,0,1,1,25.13,14.68,10.45,10.45,0,0,1,14.68,25.13Z" style="fill:#fff"/><text transform="translate(11.66 20.4)" style="font-size:16.075820922851562px;fill:#fff;font-family:Montserrat-Regular, Montserrat;letter-spacing:-0.050055764110692944em">1</text></g></g></g></g></svg>