<?xml version="1.0" encoding="utf-8"?>
<!-- Generator: Adobe Illustrator 23.0.1, SVG Export Plug-In . SVG Version: 6.00 Build 0)  -->
<svg version="1.1" id="Livello_1" xmlns="http://www.w3.org/2000/svg" xmlns:xlink="http://www.w3.org/1999/xlink" x="0px" y="0px"
	 viewBox="0 0 150 150" style="enable-background:new 0 0 150 150;" xml:space="preserve">
<title>JP</title>
<g>
	<g id="icone_bottoni">
		<g id="ovale">
			<path style="fill:none;stroke:#FFFFFF;stroke-width:3.5;stroke-miterlimit:10;" d="M50.1,50.75h51.41
				c12.9,0,23.35,10.45,23.35,23.35v2.3c0,12.9-10.45,23.35-23.35,23.35H50.1c-12.9,0-23.35-10.45-23.35-23.35v-2.3
				C26.75,61.2,37.2,50.75,50.1,50.75z"/>
			<path style="fill:none;stroke:#FFFFFF;stroke-width:3.5;stroke-miterlimit:10;" d="M50.95,62.25h49.71
				c6.84,0,12.39,5.55,12.39,12.39v1.22c0,6.84-5.55,12.39-12.39,12.39H50.95c-6.84,0-12.39-5.55-12.39-12.39v-1.22
				C38.56,67.8,44.11,62.25,50.95,62.25z"/>
			<line style="fill:none;stroke:#FFFFFF;stroke-width:3.5;stroke-miterlimit:10;" x1="69.05" y1="62.05" x2="82.56" y2="88.45"/>
		</g>
	</g>
</g>
</svg>
